<svg xmlns="http://www.w3.org/2000/svg" viewBox="0 0 666 98" width="652" height="96">
	<style>
		tspan { white-space:pre }
	</style>
	<path id="Worker " fill="#41b883" d="M121.26 0.32L120.23 2.62L97.99 51.98L82.86 18.39L75.76 2.62L74.73 0.32L69.7 0.32L68.65 2.62L61.55 18.39L46.42 51.98L24.19 2.62L23.15 0.32L0.39 0.32L2.87 5.81L43.91 98L48.45 98L72.21 45.25L95.73 98L100.23 98L108.65 78.85L141.54 5.81L144.01 0.32ZM191.17 0.65C164.33 0.65 142.49 22.49 142.49 49.33C142.49 76.16 164.33 98 191.17 98C218 98 239.84 76.16 239.84 49.33C239.84 22.49 218 0.65 191.17 0.65ZM219.52 49.33C219.52 64.96 206.8 77.68 191.17 77.68C175.53 77.68 162.81 64.96 162.81 49.33C162.81 33.69 175.53 20.97 191.17 20.97C206.8 20.97 219.52 33.69 219.52 49.33ZM342.34 92.08L314.37 46.23C314.54 46.11 314.71 45.98 314.87 45.86L314.97 45.77C315.09 45.69 315.21 45.6 315.32 45.51C315.53 45.34 315.74 45.17 315.94 45C316.22 44.77 316.49 44.55 316.76 44.33C316.79 44.29 316.83 44.26 316.87 44.23C317.08 44.05 317.29 43.86 317.5 43.67C318.11 43.13 318.73 42.56 319.38 41.92C326.1 35.29 330.73 26.93 332.77 17.75C333.54 14.3 333.93 10.72 333.93 7.12C333.93 5.99 333.89 4.82 333.81 3.67L333.55 0.05L251.47 0.05L251.47 20.8L295.92 20.8L295.92 20.8L309.63 20.8C308.34 23.12 306.71 25.27 304.8 27.15C302.29 29.63 299.4 31.58 296.21 32.97C296.12 33.01 296.02 33.05 295.92 33.09C292.48 34.53 288.83 35.26 285.04 35.26L251.47 35.26L251.47 98L272.22 98L272.22 56.01L285.04 56.01C285.36 56.01 285.68 56.01 286 56L286.03 56L286.07 56L286.31 55.99L286.54 55.98L286.58 55.98C286.83 55.98 287.08 55.97 287.33 55.95C287.45 55.95 287.55 55.94 287.62 55.94C287.94 55.92 288.26 55.91 288.58 55.88L288.79 55.88L288.95 55.85C289.27 55.83 289.61 55.8 289.99 55.76C290.31 55.73 290.64 55.69 290.97 55.65C291.11 55.63 291.26 55.62 291.39 55.59C291.71 55.56 292.02 55.51 292.33 55.46L292.37 55.46C292.49 55.44 292.61 55.43 292.73 55.4C293 55.37 293.24 55.32 293.47 55.28C294.09 55.18 294.73 55.05 295.37 54.92L320.5 96.13L321.64 98L345.94 98ZM381.49 0.32L360.74 0.32L360.74 44.12L381.49 23.37ZM447.66 91.36L405.46 49.16L447.65 6.96L454.29 0.32L424.95 0.32L394.12 31.15L394.14 31.18L360.74 64.57L360.74 98L381.49 98L381.49 73.13L390.78 63.83L423.81 96.86L424.95 98L454.3 98Z" />
	<path id="Worker " fill="#333333" d="M469.13 0.31L469.12 4.2L469.12 21.06L556.41 21.06L556.41 0.31ZM489.88 56.27L547.7 56.27L547.7 35.52L489.88 35.52L469.13 35.39L469.13 77.25L469.12 81.14L469.12 98L556.41 98L556.41 77.25L489.88 77.25ZM662.02 92.08L634.06 46.23C634.22 46.11 634.39 45.98 634.55 45.86L634.66 45.77C634.77 45.69 634.89 45.6 635 45.51C635.21 45.34 635.42 45.17 635.62 45C635.9 44.77 636.17 44.55 636.44 44.33C636.48 44.29 636.52 44.26 636.55 44.23C636.76 44.05 636.97 43.86 637.19 43.67C637.8 43.13 638.41 42.56 639.06 41.92C645.78 35.29 650.41 26.93 652.45 17.75C653.22 14.3 653.61 10.72 653.61 7.12C653.61 5.99 653.57 4.82 653.49 3.67L653.24 0.05L571.15 0.05L571.15 20.8L615.6 20.8L615.6 20.8L629.31 20.8C628.02 23.12 626.39 25.27 624.48 27.15C621.97 29.63 619.09 31.58 615.9 32.97C615.8 33.01 615.7 33.05 615.6 33.09C612.17 34.53 608.51 35.26 604.72 35.26L571.15 35.26L571.15 98L591.9 98L591.9 56.01L604.72 56.01C605.04 56.01 605.36 56.01 605.69 56L605.71 56L605.75 56L605.99 55.99L606.23 55.98L606.26 55.98C606.51 55.98 606.76 55.97 607.01 55.95C607.13 55.95 607.23 55.94 607.3 55.94C607.62 55.92 607.94 55.91 608.26 55.88L608.47 55.88L608.63 55.85C608.95 55.83 609.3 55.8 609.67 55.76C610 55.73 610.32 55.69 610.65 55.65C610.8 55.63 610.94 55.62 611.08 55.59C611.39 55.56 611.7 55.51 612.01 55.46L612.05 55.46C612.17 55.44 612.29 55.43 612.41 55.4C612.68 55.37 612.93 55.32 613.15 55.28C613.77 55.18 614.41 55.05 615.05 54.92L640.19 96.13L641.32 98L665.62 98Z" />
</svg>