<?xml version="1.0" encoding="utf-8"?>
<!-- Generator: Adobe Illustrator 23.0.1, SVG Export Plug-In . SVG Version: 6.00 Build 0)  -->
<svg version="1.1" id="Layer_1" focusable="false" xmlns="http://www.w3.org/2000/svg" xmlns:xlink="http://www.w3.org/1999/xlink"
	 x="0px" y="0px" viewBox="0 0 640 512" style="enable-background:new 0 0 640 512;" xml:space="preserve">
<style type="text/css">
	.st0{fill:#FF9800;}
	.st1{fill:#FFD598;}
</style>
<path class="st0" d="M636.2,247.3L492.1,112.1c-4.8-4.5-12.4-4.3-17,0.5L431.6,159c-4.6,4.9-4.3,12.7,0.8,17.2L523,256l-90.6,79.7
	c-5.1,4.5-5.5,12.3-0.8,17.2l43.5,46.4c4.5,4.9,12.1,5.1,17,0.6l144.1-135.1C641.3,260.1,641.3,252,636.2,247.3z M207.6,335.7
	L117,256l90.6-79.7c5.1-4.5,5.5-12.3,0.8-17.2l-43.5-46.4c-4.5-4.8-12.1-5.1-17-0.5L3.8,247.2c-5.1,4.7-5.1,12.8,0,17.5l144.1,135.1
	c4.9,4.6,12.5,4.4,17-0.5l43.5-46.4C213,348,212.7,340.2,207.6,335.7z"/>
<path class="st1" d="M430.3,33.1L293.8,503.3c-1.9,6.4-8.5,10.1-14.9,8.2l-61-17.7c-6.4-1.8-10-8.5-8.2-14.9L346.2,8.7
	c1.8-6.4,8.5-10,14.9-8.2l61,17.7C428.5,20,432.1,26.7,430.3,33.1z"/>
</svg>
