<?xml version="1.0" encoding="utf-8"?>
<!-- Generator: Adobe Illustrator 23.0.1, SVG Export Plug-In . SVG Version: 6.00 Build 0)  -->
<svg version="1.1" id="Layer_1" focusable="false" xmlns="http://www.w3.org/2000/svg" xmlns:xlink="http://www.w3.org/1999/xlink"
	 x="0px" y="0px" viewBox="0 0 576 512" style="enable-background:new 0 0 576 512;" xml:space="preserve">
<style type="text/css">
	.st0{fill:#333333;}
	.st1{fill:#ACACAC;}
</style>
<path class="st0" d="M538,412c23.9-26,38-57.7,38-92c0-66.9-53.5-124.2-129.3-148.1c0.9,6.6,1.3,13.3,1.3,20.1
	c0,105.9-107.7,192-240,192c-10.8,0-21.3-0.8-31.7-1.9C207.8,439.6,281.8,480,368,480c41,0,79.1-9.2,111.3-25
	c21.8,12.7,52.1,25,88.7,25c3.2,0,6.1-1.9,7.3-4.8c1.3-2.9,0.7-6.3-1.5-8.7C573.5,466.2,551.4,442.3,538,412z"/>
<path class="st1" d="M416,192c0,88.4-93.1,160-208,160c-41,0-79.1-9.3-111.3-25C74.9,339.7,44.6,352,8,352c-3.2,0-6-1.8-7.3-4.8
	s-0.7-6.4,1.5-8.7c0.3-0.3,22.4-24.3,35.8-54.5c-23.9-26.1-38-57.7-38-92C0,103.6,93.1,32,208,32S416,103.6,416,192z"/>
</svg>
