<?xml version="1.0" encoding="utf-8"?>
<!-- Generator: Adobe Illustrator 23.0.1, SVG Export Plug-In . SVG Version: 6.00 Build 0)  -->
<svg version="1.1" id="Layer_1" focusable="false" xmlns="http://www.w3.org/2000/svg" xmlns:xlink="http://www.w3.org/1999/xlink"
	 x="0px" y="0px" viewBox="0 0 288 512" style="enable-background:new 0 0 288 512;" xml:space="preserve">
<style type="text/css">
	.st0{fill:#92CEC9;}
	.st1{fill:#029689;}
</style>
<path class="st0" d="M176,64V16c0-8.8-7.2-16-16-16h-32c-8.8,0-16,7.2-16,16v48"/>
<path class="st1" d="M112,64h-2.5C45.8,64-5.4,118.7,0.5,183.6c4.2,46.1,39.4,83.6,83.8,96.6l102.5,30c12.5,3.7,21.2,15.3,21.2,28.3
	c0,16.3-13.2,29.5-29.5,29.5h-66.3C100,368,88,364.3,78,357.5c-6.1-4.1-14.3-3.1-19.5,2l-34.8,34c-7.1,6.9-6.1,18.4,1.8,24.5
	c24.5,19.2,55.1,29.9,86.5,30v48c0,8.8,7.2,16,16,16h32c8.8,0,16-7.2,16-16v-48.2c46.6-0.9,90.3-28.6,105.7-72.7
	c21.5-61.6-14.6-124.8-72.5-141.7l0,0l-108-31.6C88.7,198.2,80,186.5,80,173.5c0-16.3,13.2-29.5,29.5-29.5h66.3
	c12.2,0,24.2,3.7,34.2,10.5c6.1,4.1,14.3,3.1,19.5-2l34.8-34c7.1-6.9,6.1-18.4-1.8-24.5C238,74.8,207.4,64.1,176,64"/>
<path class="st0" d="M112,448l64-0.2V496c0,0-0.1,14.7-15,16l-33,0c0,0-12,0.8-16-13.4V448z"/>
</svg>
