<?xml version="1.0" encoding="utf-8"?>
<!-- Generator: Adobe Illustrator 23.0.1, SVG Export Plug-In . SVG Version: 6.00 Build 0)  -->
<svg version="1.1" id="Layer_1" focusable="false" xmlns="http://www.w3.org/2000/svg" xmlns:xlink="http://www.w3.org/1999/xlink"
	 x="0px" y="0px" viewBox="0 0 384 512" style="enable-background:new 0 0 384 512;" xml:space="preserve">
<style type="text/css">
	.st0{fill:#B1D8B2;}
	.st1{fill:#4CAF50;}
</style>
<path class="st0" d="M96,256v64h192v-64H96z M96,256v64h192v-64H96z M96,256v64h192v-64H96z M248,160c-13.2,0-24-10.8-24-24V0H24
	C10.7,0,0,10.7,0,24v464c0,13.3,10.7,24,24,24h336c13.3,0,24-10.7,24-24V160H248z M64,72c0-4.4,3.6-8,8-8h80c4.4,0,8,3.6,8,8v16
	c0,4.4-3.6,8-8,8H72c-4.4,0-8-3.6-8-8V72z M64,136c0-4.4,3.6-8,8-8h80c4.4,0,8,3.6,8,8v16c0,4.4-3.6,8-8,8H72c-4.4,0-8-3.6-8-8V136z
	 M320,440c0,4.4-3.6,8-8,8h-80c-4.4,0-8-3.6-8-8v-16c0-4.4,3.6-8,8-8h80c4.4,0,8,3.6,8,8V440z M320,336c0,8.8-7.2,16-16,16H80
	c-8.8,0-16-7.2-16-16v-96c0-8.8,7.2-16,16-16h224c8.8,0,16,7.2,16,16V336z M96,320h192v-64H96V320z M96,256v64h192v-64H96z M96,256
	v64h192v-64H96z M96,256v64h192v-64H96z"/>
<path class="st1" d="M304,224H80c-8.8,0-16,7.2-16,16v96c0,8.8,7.2,16,16,16h224c8.8,0,16-7.2,16-16v-96
	C320,231.2,312.8,224,304,224z M288,320H96v-64h192V320z"/>
<path class="st1" d="M320,424v16c0,4.4-3.6,8-8,8h-80c-4.4,0-8-3.6-8-8v-16c0-4.4,3.6-8,8-8h80C316.4,416,320,419.6,320,424z"/>
<path class="st1" d="M384,121.9v6.1H256V0h6.1c6.4,0,12.5,2.5,17,7l97.9,98C381.5,109.5,384,115.6,384,121.9z"/>
</svg>
