<?xml version="1.0" encoding="utf-8"?>
<!-- Generator: Adobe Illustrator 23.0.1, SVG Export Plug-In . SVG Version: 6.00 Build 0)  -->
<svg version="1.1" id="Layer_1" focusable="false" xmlns="http://www.w3.org/2000/svg" xmlns:xlink="http://www.w3.org/1999/xlink"
	 x="0px" y="0px" viewBox="0 0 576 512" style="enable-background:new 0 0 576 512;" xml:space="preserve">
<style type="text/css">
	.st0{fill:#B1D8B2;}
	.st1{fill:#4CAF50;}
</style>
<path class="st0" d="M569,332c-1.1-1.4-2.4-2.7-3.7-3.9l0,0c-11.8-10.7-30.2-10-42.6,0L430.3,402c-11.3,9.1-25.5,14-40,14H272
	c-8.8,0-16-7.2-16-16s7.2-16,16-16h78.3c15.9,0,30.7-10.9,33.3-26.6c0.3-1.8,0.5-3.6,0.5-5.5c0-17.7-14.3-31.9-32-31.9H192
	c-27,0-53.2,9.3-74.1,26.3L71.4,384H16c-8.8,0-16,7.2-16,16v96c0,8.8,7.2,16,16,16h356.8c14.5,0,28.6-4.9,40-14L564,377
	C577.8,366,580,345.8,569,332z"/>
<path class="st1" d="M330,222.4V240c0,8.8-7.8,16-17.4,16h-17.4c-9.5,0-17.4-7.2-17.4-16v-17.7c-12.2-1.3-24-5.2-34.5-11.5
	c0,0,0,0-0.1,0c-5.4-3.3-7.1-10.3-3.8-15.7c0.6-1,1.4-1.9,2.3-2.7l19-17.5c4-3.7,10.1-4.2,15.3-2c3.6,1.4,7.4,2.2,11.2,2.2h35.6
	c5,0,9.1-3.8,9.1-8.4c-0.1-3.9-2.8-7.2-6.6-8.1L271,144.3c-24.1-6.4-43.4-24.7-46.6-47.7c-4.3-32,20.6-59.4,53.5-63V16
	c0-8.8,7.8-16,17.4-16h17.4c9.5,0,17.4,7.2,17.4,16v17.7c12.2,1.3,24,5.2,34.5,11.5c0,0,0.1,0,0.1,0.1c5.4,3.3,7.1,10.3,3.8,15.7
	c-0.6,1-1.3,1.8-2.2,2.6l-19,17.5c-4,3.7-10.1,4.2-15.3,2c-3.6-1.4-7.4-2.2-11.2-2.2h-35.6c-5,0-9.1,3.8-9.1,8.4
	c0.1,3.9,2.8,7.2,6.6,8.1l54.3,14.3c24.1,6.4,43.4,24.7,46.6,47.7C387.8,191.4,362.9,218.8,330,222.4z"/>
</svg>
