<?xml version="1.0" encoding="utf-8"?>
<!-- Generator: Adobe Illustrator 23.0.1, SVG Export Plug-In . SVG Version: 6.00 Build 0)  -->
<svg version="1.1" id="Layer_1" focusable="false" xmlns="http://www.w3.org/2000/svg" xmlns:xlink="http://www.w3.org/1999/xlink"
	 x="0px" y="0px" viewBox="0 0 640 512" style="enable-background:new 0 0 640 512;" xml:space="preserve">
<style type="text/css">
	.st0{fill:#B6DEB8;}
	.st1{fill:#4CAF50;}
</style>
<path class="st0" d="M152.1,236.2c-3.5-12.1-7.8-33.2-7.8-33.2h-0.5c0,0-4.3,21.1-7.8,33.2l-11.1,37.5H163L152.1,236.2z
	 M152.1,236.2c-3.5-12.1-7.8-33.2-7.8-33.2h-0.5c0,0-4.3,21.1-7.8,33.2l-11.1,37.5H163L152.1,236.2z M152.1,236.2
	c-3.5-12.1-7.8-33.2-7.8-33.2h-0.5c0,0-4.3,21.1-7.8,33.2l-11.1,37.5H163L152.1,236.2z M24,96c-13.3,0-24,10.7-24,24v272
	c0,13.3,10.7,24,24,24h280V96H24z M217.8,352h-22.9c-5.3,0-10-3.5-11.5-8.6l-9.4-31.9h-60.2l-9.1,31.8c-1.5,5.1-6.2,8.7-11.5,8.7
	H70.3c-8.2,0-14-8.1-11.4-15.9L116.4,167c1.7-4.9,6.2-8.1,11.4-8.1h32.5c5.1,0,9.7,3.3,11.4,8.1l57.5,169.1
	C231.8,343.9,226.1,352,217.8,352z M144.3,203h-0.5c0,0-4.3,21.1-7.8,33.2l-11.1,37.5H163l-10.9-37.5
	C148.6,224.1,144.3,203,144.3,203z M152.1,236.2c-3.5-12.1-7.8-33.2-7.8-33.2h-0.5c0,0-4.3,21.1-7.8,33.2l-11.1,37.5H163
	L152.1,236.2z"/>
<path class="st1" d="M229.2,336.1L171.7,167c-1.7-4.8-6.3-8.1-11.4-8.1h-32.5c-5.2,0-9.7,3.2-11.4,8.1L58.9,336.1
	c-2.6,7.8,3.2,15.9,11.4,15.9h22.9c5.3,0,10-3.6,11.5-8.7l9.1-31.8H174l9.4,31.9c1.5,5.1,6.2,8.6,11.5,8.6h22.9
	C226.1,352,231.8,343.9,229.2,336.1z M124.9,273.7l11.1-37.5c3.5-12.1,7.8-33.2,7.8-33.2h0.5c0,0,4.3,21.1,7.8,33.2l10.9,37.5H124.9
	z"/>
<path class="st1" d="M616,96H336v320h280c13.3,0,24-10.7,24-24V120C640,106.7,629.3,96,616,96z M592,216c0,6.6-5.4,12-12,12h-11.4
	c-6.9,23.6-21.7,47.4-42.7,69.9c8.4,6.4,17.1,12.5,26.1,18c5.5,3.4,7.3,10.5,4.1,16.2l-7.9,13.9c-3.4,5.9-10.9,7.8-16.7,4.3
	c-12.6-7.8-24.5-16.1-35.4-24.9c-10.9,8.7-22.7,17.1-35.4,24.9c-5.8,3.5-13.3,1.6-16.7-4.3l-7.9-13.9c-3.2-5.6-1.4-12.8,4.2-16.2
	c9.3-5.7,18-11.7,26.1-18c-7.9-8.4-14.9-17-21-25.7c-4-5.7-2.2-13.6,3.7-17.1l6.5-3.9l7.3-4.3c5.4-3.2,12.4-1.7,16,3.4
	c5,7,10.8,14,17.4,20.9c13.5-14.2,23.8-28.9,30-43.2H412c-6.6,0-12-5.4-12-12v-16c0-6.6,5.4-12,12-12h64v-16c0-6.6,5.4-12,12-12h16
	c6.6,0,12,5.4,12,12v16h64c6.6,0,12,5.4,12,12V216z"/>
<path class="st0" d="M592,200v16c0,6.6-5.4,12-12,12h-11.4c-6.9,23.6-21.7,47.4-42.7,69.9c8.4,6.4,17.1,12.5,26.1,18
	c5.5,3.4,7.3,10.5,4.1,16.2l-7.9,13.9c-3.4,5.9-10.9,7.8-16.7,4.3c-12.6-7.8-24.5-16.1-35.4-24.9c-10.9,8.7-22.7,17.1-35.4,24.9
	c-5.8,3.5-13.3,1.6-16.7-4.3l-7.9-13.9c-3.2-5.6-1.4-12.8,4.2-16.2c9.3-5.7,18-11.7,26.1-18c-7.9-8.4-14.9-17-21-25.7
	c-4-5.7-2.2-13.6,3.7-17.1l6.5-3.9l7.3-4.3c5.4-3.2,12.4-1.7,16,3.4c5,7,10.8,14,17.4,20.9c13.5-14.2,23.8-28.9,30-43.2H412
	c-6.6,0-12-5.4-12-12v-16c0-6.6,5.4-12,12-12h64v-16c0-6.6,5.4-12,12-12h16c6.6,0,12,5.4,12,12v16h64C586.6,188,592,193.4,592,200z"
	/>
</svg>
