<?xml version="1.0" encoding="utf-8"?>
<!-- Generator: Adobe Illustrator 23.0.1, SVG Export Plug-In . SVG Version: 6.00 Build 0)  -->
<svg version="1.1" id="Layer_1" focusable="false" xmlns="http://www.w3.org/2000/svg" xmlns:xlink="http://www.w3.org/1999/xlink"
	 x="0px" y="0px" viewBox="0 0 624 541" style="enable-background:new 0 0 624 541;" xml:space="preserve">
<style type="text/css">
	.st0{fill:#FFC107;}
	.st1{fill:#FFE69B;}
</style>
<path class="st0" d="M232,445l0,38.3c0,6.3,1.9,12.5,5.4,17.7l17.1,25.7c5.9,8.9,15.9,14.3,26.6,14.3h61.7
	c10.7,0,20.7-5.4,26.6-14.3l17.1-25.7c3.5-5.2,5.3-11.4,5.4-17.7l0-38.3H232z"/>
<path class="st1" d="M311.5,29C209.4,29.3,136,112,136,205c0,44.4,16.5,84.8,43.6,115.8c16.5,18.8,42.4,58.2,52.2,91.4
	c0,0.3,0.1,0.5,0.1,0.8h160.2c0-0.3,0.1-0.5,0.1-0.8c9.9-33.2,35.7-72.6,52.2-91.4C471.5,289.8,488,249.4,488,205
	C488,107.6,408.9,28.7,311.5,29z M312,125c-44.1,0-80,35.9-80,80c0,8.8-7.2,16-16,16s-16-7.2-16-16c0-61.8,50.2-112,112-112
	c8.8,0,16,7.2,16,16S320.8,125,312,125z"/>
<path class="st0" d="M16.5,233h92c9.1,0,16.5-7.4,16.5-16.5v-17c0-9.1-7.4-16.5-16.5-16.5h-92C7.4,183,0,190.4,0,199.5v17
	C0,225.6,7.4,233,16.5,233z"/>
<path class="st0" d="M515.5,233h92c9.1,0,16.5-7.4,16.5-16.5v-17c0-9.1-7.4-16.5-16.5-16.5h-92c-9.1,0-16.5,7.4-16.5,16.5v17
	C499,225.6,506.4,233,515.5,233z"/>
<path class="st0" d="M471.9,359.7L556,397c8.3,3.7,18.1-0.1,21.8-8.4l6.9-15.5c3.7-8.3-0.1-18.1-8.4-21.8L492.2,314
	c-8.3-3.7-18.1,0.1-21.8,8.4l-6.9,15.5C459.8,346.3,463.6,356,471.9,359.7z"/>
<path class="st0" d="M34.8,53.4l77.8,49.2c7.7,4.9,17.9,2.6,22.8-5.1l9.1-14.4c4.9-7.7,2.6-17.9-5.1-22.8L61.5,11.2
	c-7.7-4.9-17.9-2.6-22.8,5.1l-9.1,14.4C24.8,38.4,27.1,48.6,34.8,53.4z"/>
<path class="st0" d="M155.3,359.7L71.2,397c-8.3,3.7-18.1-0.1-21.8-8.4L42.5,373c-3.7-8.3,0.1-18.1,8.4-21.8L135,314
	c8.3-3.7,18.1,0.1,21.8,8.4l6.9,15.5C167.4,346.3,163.6,356,155.3,359.7z"/>
<path class="st0" d="M567.4,45.4l-77.8,49.2c-7.7,4.9-17.9,2.6-22.8-5.1l-9.1-14.4c-4.9-7.7-2.6-17.9,5.1-22.8l77.8-49.2
	c7.7-4.9,17.9-2.6,22.8,5.1l9.1,14.4C577.4,30.4,575.1,40.6,567.4,45.4z"/>
</svg>
