<?xml version="1.0" encoding="utf-8"?>
<!-- Generator: Adobe Illustrator 23.0.1, SVG Export Plug-In . SVG Version: 6.00 Build 0)  -->
<svg version="1.1" id="Layer_1" focusable="false" xmlns="http://www.w3.org/2000/svg" xmlns:xlink="http://www.w3.org/1999/xlink"
	 x="0px" y="0px" viewBox="0 0 512 512" style="enable-background:new 0 0 512 512;" xml:space="preserve">
<style type="text/css">
	.st0{fill:#F44336;}
	.st1{fill:#FAB3AE;}
</style>
<path class="st0" d="M255,382.7l-88-73.3c-40.1,2.6-76.5,17.9-97.2,72.3c-2.4,6.2-8,10-14.6,10C44.1,391.6,9.8,364,0,357.3
	C0,439.6,37.9,512,128,512c75.9,0,128-43.8,128-120.2C256,388.7,255.3,385.7,255,382.7z"/>
<path class="st1" d="M512,49.5c0,16.1-6.5,31.6-13.9,46C385,306.5,349,352,286.9,352c-7.8,0-15.2-1.2-22.4-3l-63.8-53.2
	c-5.5-11.9-8.7-25-8.7-38.7c0-53.8,21.3-58,225.7-240.6C428.5,6.7,442.7,0,457.9,0C486,0,512,20.6,512,49.5z"/>
</svg>
