<?xml version="1.0" encoding="utf-8"?>
<!-- Generator: Adobe Illustrator 23.0.1, SVG Export Plug-In . SVG Version: 6.00 Build 0)  -->
<svg version="1.1" xmlns="http://www.w3.org/2000/svg" xmlns:xlink="http://www.w3.org/1999/xlink" x="0px" y="0px"
	 viewBox="0 0 512 512" style="enable-background:new 0 0 512 512;" xml:space="preserve">
<style type="text/css">
	.st0{fill:#93D6F4;}
	.st1{fill:#03A9F4;}
</style>
<g id="Layer_3">
	<path class="st0" d="M134.8,342.1v104.2v10.5c0,0,7.7,27.4,33.1,12.5l68.1-82.1l-47.2-19.9l226.8-215.3l-5.8-46.1h-37.4L250,183.7
		L134.8,342.1z"/>
</g>
<g id="Layer_2">
	<path class="st1" d="M367.3,132.6L134.8,342.1l-97.9-38.9c0,0-20.9-11.5-5-33.1L431.4,40.5c0,0,26.6-10.8,31,15.1l-62.6,378
		c0,0-6.5,18.7-28.1,10.8l-182.9-77l194-234c0,0,2.5-10.1-7.9-7.6L367.3,132.6z"/>
</g>
</svg>
