<?xml version="1.0" encoding="utf-8"?>
<!-- Generator: Adobe Illustrator 23.0.1, SVG Export Plug-In . SVG Version: 6.00 Build 0)  -->
<svg version="1.1" id="Layer_1" focusable="false" xmlns="http://www.w3.org/2000/svg" xmlns:xlink="http://www.w3.org/1999/xlink"
	 x="0px" y="0px" viewBox="0 0 512 512" style="enable-background:new 0 0 512 512;" xml:space="preserve">
<style type="text/css">
	.st0{fill:#A5D4FA;}
	.st1{fill:#2196F3;}
</style>
<path class="st0" d="M497.9,74.2l-60.1-60.1c-18.8-18.8-49.2-18.8-67.9,0l-56.5,56.5l128,128l56.5-56.5
	C516.7,123.3,516.7,92.9,497.9,74.2z"/>
<path class="st1" d="M418.8,221.3L222,418c-52.6,52.6-121.5,85.6-195.3,93.8c-15.3,1.7-28.2-11.2-26.5-26.5l0-0.2
	C8.4,411.3,41.5,342.5,94,290l151.6-151.6l-22.6-22.6L121.1,217.7c-6.3,6.3-16.4,6.3-22.6,0L75.8,195c-6.3-6.2-6.3-16.4,0-22.6
	L194.6,53.6c15.6-15.6,40.9-15.6,56.6,0L418.8,221.3z"/>
</svg>
