<?xml version="1.0" encoding="utf-8"?>
<!-- Generator: Adobe Illustrator 23.0.1, SVG Export Plug-In . SVG Version: 6.00 Build 0)  -->
<svg version="1.1" id="Layer_1" focusable="false" xmlns="http://www.w3.org/2000/svg" xmlns:xlink="http://www.w3.org/1999/xlink"
	 x="0px" y="0px" viewBox="0 0 640 512" style="enable-background:new 0 0 640 512;" xml:space="preserve">
<style type="text/css">
	.st0{fill:#9B59B6;}
	.st1{fill:#D0B6DB;}
</style>
<path class="st0" d="M320,32c-61.9,0-112,50.1-112,112s50.1,112,112,112s112-50.1,112-112S381.9,32,320,32z M396.8,288h-8.3
	c-20.8,10-43.9,16-68.5,16s-47.6-6-68.5-16h-8.3C179.6,288,128,339.6,128,403.2V432c0,26.5,21.5,48,48,48h288c26.5,0,48-21.5,48-48
	v-28.8C512,339.6,460.4,288,396.8,288z"/>
<circle class="st1" cx="544" cy="160" r="64"/>
<path class="st1" d="M640,320v32c0,17.7-14.3,32-32,32h-66c-6.2-47.4-34.8-87.3-75.1-109.4c11.6-11.5,27.5-18.6,45.1-18.6h64
	C611.3,256,640,284.7,640,320z"/>
<circle class="st1" cx="96" cy="160" r="64"/>
<path class="st1" d="M173.1,274.6c-40.3,22.1-68.9,62-75.2,109.4H32c-17.7,0-32-14.3-32-32v-32c0-35.3,28.7-64,64-64h64
	C145.6,256,161.5,263.1,173.1,274.6z"/>
</svg>
